<?xml version="1.0" standalone="no"?><!DOCTYPE svg PUBLIC "-//W3C//DTD SVG 1.1//EN" "http://www.w3.org/Graphics/SVG/1.1/DTD/svg11.dtd"><svg t="1702971266659" class="icon" viewBox="0 0 1024 1024" version="1.1" xmlns="http://www.w3.org/2000/svg" p-id="6673" xmlns:xlink="http://www.w3.org/1999/xlink" width="200" height="200"><path d="M528 1023.5c-101.8 0-198.7-31.9-280.4-92.2-14-10.3-16.9-30-6.6-44 10.3-14 30-16.9 44-6.6 70.7 52.3 154.7 79.9 242.9 79.9 225.6 0 409.1-183.5 409.1-409.1 0-59.8-12.6-117.4-37.4-171.3-7.7-16.7-16.7-33.1-26.6-48.7-10.9-17.1-23.2-33.5-36.5-48.7-77.8-89.3-190.2-140.5-308.5-140.5-225.6 0-409.1 183.5-409.1 409.1 0 59.2 12.4 116.3 36.7 169.6 7.2 15.8 0.3 34.5-15.6 41.7-15.8 7.2-34.5 0.3-41.7-15.6-28.1-61.6-42.4-127.5-42.4-195.8C55.9 291.2 267.7 79.4 528 79.4c136.5 0 266.3 59.1 356 162 15.3 17.6 29.5 36.5 42.1 56.2 11.5 18 21.8 36.9 30.7 56.2 28.7 62.2 43.2 128.7 43.2 197.6 0.1 260.4-211.7 472.1-472 472.1z" fill="#e89abe" p-id="6674"></path><path d="M891.2 331.6c-3.5 0-7-0.2-10.5-0.7-17.3-2.2-29.5-17.9-27.3-35.1 2.2-17.3 18-29.5 35.1-27.3 17.2 2 38.3-22.3 50.1-58.2 5.5-16.5 23.3-25.5 39.7-20 16.5 5.4 25.5 23.2 20 39.7-20.8 63.7-61.3 101.6-107.1 101.6zM653.9 152.8c-10 0-19.9-4.8-26-13.7-9.8-14.3-6.1-33.9 8.2-43.7 22.3-15.3 220.8-147 319.9-72.6 25.8 19.3 43.4 49.1 51 86.2 3.5 17-7.5 33.6-24.6 37.1-17 3.5-33.7-7.5-37.1-24.6-3.1-15.2-10.3-35.9-27-48.4-49.7-37.3-187.6 33.9-246.6 74.2-5.5 3.7-11.7 5.5-17.8 5.5zM143.7 331.6c-42 0-79.5-31.8-101.9-87.2C12.7 172.3 15.8 70.1 79 22.7c99.1-74.3 297.6 57.4 319.9 72.6l-35.5 52c-59-40.3-197-111.5-246.6-74.2-36.2 27.1-36.8 97.8-16.6 147.7 10.2 25.3 28.5 50 46.3 47.7l7.8 62.5c-3.6 0.4-7.1 0.6-10.6 0.6zM607.3 764.3H438.2c-45.9 0-83.3-37.4-83.3-83.3v-34.5c0-86.4 70.3-156.7 156.7-156.7h22.3c86.4 0 156.7 70.3 156.7 156.7V681c0 46-37.4 83.3-83.3 83.3z m-95.7-232.5c-63.3 0-114.7 51.5-114.7 114.7V681c0 22.8 18.5 41.3 41.3 41.3h169.1c22.8 0 41.3-18.5 41.3-41.3v-34.5c0-63.3-51.5-114.7-114.7-114.7h-22.3z" fill="#e89abe" p-id="6675"></path><path d="M475.5 627.1m-21 0a21 21 0 1 0 42 0 21 21 0 1 0-42 0Z" fill="#e89abe" p-id="6676"></path><path d="M569.9 627.1m-21 0a21 21 0 1 0 42 0 21 21 0 1 0-42 0Z" fill="#e89abe" p-id="6677"></path><path d="M695.8 396.3m-36.7 0a36.7 36.7 0 1 0 73.4 0 36.7 36.7 0 1 0-73.4 0Z" fill="#e89abe" p-id="6678"></path><path d="M360.1 396.3m-36.7 0a36.7 36.7 0 1 0 73.4 0 36.7 36.7 0 1 0-73.4 0Z" fill="#e89abe" p-id="6679"></path></svg>